HIERARCHY
ROOT Hips
{
  OFFSET -187.679 86.5976 -156.378
  CHANNELS 6 Xposition Yposition Zposition Zrotation Xrotation Yrotation
  JOINT LeftUpLeg
  {
    OFFSET 8.64259 1.95398 -2.38835
    CHANNELS 3 Zrotation Xrotation Yrotation
    JOINT LeftLeg
    {
      OFFSET 43.7702 0 0
      CHANNELS 3 Zrotation Xrotation Yrotation
      JOINT LeftFoot
      {
        OFFSET 40.6238 0 0
        CHANNELS 3 Zrotation Xrotation Yrotation
        JOINT LeftToeBase
        {
          OFFSET 12.7242 0 0
          CHANNELS 3 Zrotation Xrotation Yrotation
          End Site
          {
            OFFSET 0 0 0
          }
        }
      }
    }
  }
  JOINT RightUpLeg
  {
    OFFSET -8.2249 1.95398 -2.59336
    CHANNELS 3 Zrotation Xrotation Yrotation
    JOINT RightLeg
    {
      OFFSET 43.5653 0 0
      CHANNELS 3 Zrotation Xrotation Yrotation
      JOINT RightFoot
      {
        OFFSET 40.6238 0 0
        CHANNELS 3 Zrotation Xrotation Yrotation
        JOINT RightToeBase
        {
          OFFSET 12.7242 0 0
          CHANNELS 3 Zrotation Xrotation Yrotation
          End Site
          {
            OFFSET 0 0 0
          }
        }
      }
    }
  }
  JOINT Spine
  {
    OFFSET 0.165834 0.87714 6.61349
    CHANNELS 3 Zrotation Xrotation Yrotation
    JOINT Spine1
    {
      OFFSET 7.38963 1.71661e-005 0
      CHANNELS 3 Zrotation Xrotation Yrotation
      JOINT Spine2
      {
        OFFSET 11.9445 1.14441e-005 0
        CHANNELS 3 Zrotation Xrotation Yrotation
        JOINT Spine3
        {
          OFFSET 14.7254 4.19617e-005 0
          CHANNELS 3 Zrotation Xrotation Yrotation
          JOINT Spine4
          {
            OFFSET 10.9679 0 0
            CHANNELS 3 Zrotation Xrotation Yrotation
            JOINT RightShoulder
            {
              OFFSET 2.46616 -1.6653 3.69651
              CHANNELS 3 Zrotation Xrotation Yrotation
              JOINT RightArm
              {
                OFFSET 13.0012 0 0
                CHANNELS 3 Zrotation Xrotation Yrotation
                JOINT RightForeArm
                {
                  OFFSET 28.7848 1.52588e-005 0
                  CHANNELS 3 Zrotation Xrotation Yrotation
                  JOINT RightHand
                  {
                    OFFSET 26.5688 1.52588e-005 0
                    CHANNELS 3 Zrotation Xrotation Yrotation
                    End Site
                    {
                      OFFSET 0 0 0
                    }
                  }
                }
              }
            }
            JOINT LeftShoulder
            {
              OFFSET 2.38034 -1.29275 -3.7523
              CHANNELS 3 Zrotation Xrotation Yrotation
              JOINT LeftArm
              {
                OFFSET 16.3182 6.10352e-005 0
                CHANNELS 3 Zrotation Xrotation Yrotation
                JOINT LeftForeArm
                {
                  OFFSET 27.0901 0 0
                  CHANNELS 3 Zrotation Xrotation Yrotation
                  JOINT LeftHand
                  {
                    OFFSET 24.5451 1.52588e-005 0
                    CHANNELS 3 Zrotation Xrotation Yrotation
                    End Site
                    {
                      OFFSET 0 0 0
                    }
                  }
                }
              }
            }
            JOINT Neck
            {
              OFFSET 5.0226 -0.0266342 0
              CHANNELS 3 Zrotation Xrotation Yrotation
              JOINT Head
              {
                OFFSET 6.69363 2.86102e-005 0
                CHANNELS 3 Zrotation Xrotation Yrotation
                End Site
                {
                  OFFSET 0 0 0
                }
              }
            }
          }
        }
      }
    }
  }
}
MOTION
Frames:	7
Frame Time:	0.0416667
-27.562 100.414 65.8789 101.065 31.3329 83.827 -174.342 2.93695 88.3094 -28.9742 18.0016 6.17656 72.4722 6.3103 2.2793 15.4059 -6.80136 3.03842 176.411 6.86407 90.0092 -27.4587 -3.45868 -1.29161 64.6022 -2.69791 0.287384 25.8978 -0.857985 1.31249 -0.833938 7.69821 -90.0017 11.4798 -1.65994 0.165887 -0.190087 -1.651 0.238786 -22.7336 -1.63303 -0.340807 -2.72094 -1.63301 -0.340804 92.433 -46.4131 -97.5969 36.4357 -10.8444 8.56053 -16.877 -8.16813 -15.849 -7.94141 0.0458501 -6.05008 -84.5564 -39.0597 85.5825 -29.6598 -17.2499 -20.0286 22.3946 7.74837 -45.9176 2.47421 0.00120703 -2.12726 -26.1441 2.70234 -1.81003 3.09645 2.9041 5.91472 
-25.3771 100.842 65.0295 99.5154 33.0543 84.8686 -174.487 2.12567 89.1139 -26.9456 18.9921 6.48611 72.5731 6.57324 1.55322 14.6941 -6.96704 2.71814 175.689 5.34664 90.1248 -24.9752 -2.41047 -0.369558 65.2979 -2.59051 0.597827 24.9598 -1.26059 2.07314 -0.743807 7.6653 -90.0757 11.5441 -1.51516 0.00477458 -0.125996 -1.51346 0.0714655 -22.6677 -1.44652 -0.450907 -2.65508 -1.44653 -0.45091 93.4072 -45.4293 -96.2189 38.1707 -10.6774 8.17999 -17.0165 -9.95686 -15.3978 -6.84967 0.0533552 -6.36451 -84.5124 -40.1673 85.8314 -30.8231 -11.6008 -15.7727 22.6841 7.37276 -44.7859 0.885974 -0.0334384 -2.27119 -26.8729 2.37113 -1.50203 3.30464 2.55262 5.12555 
-23.3026 101.096 64.4306 98.1954 32.3619 85.5745 -174.34 0.426712 89.2632 -24.3751 18.3963 6.30388 72.4003 6.73194 1.62146 16.4463 -6.45773 3.32215 175.457 4.21908 90.1503 -23.2421 -3.23458 -0.0883092 65.8241 -2.54522 0.832624 24.6372 -1.50657 2.64745 -0.427244 7.67146 -90.0624 11.5313 -0.879172 -0.0341379 -0.139396 -0.879806 0.0045853 -22.6767 -0.828273 -0.296798 -2.66403 -0.828254 -0.296807 93.4281 -45.2117 -96.2251 37.7337 -11.6869 7.80178 -18.8808 -11.121 -21.0272 -7.61909 0.024631 -5.75722 -84.2295 -40.0285 86.2901 -33.2459 -2.17543 -9.59426 16.9472 2.89159 -32.5023 -0.0697387 -0.0575879 -2.67026 -27.6722 2.7341 -1.58844 3.54856 2.90794 4.95097 
-21.2537 101.108 64.0343 96.6239 32.4641 86.3597 -174.036 0.232761 90.0248 -23.4072 19.0911 5.87414 73.3214 7.50362 1.83351 15.3273 -7.44019 4.28095 175.493 3.99132 90.5581 -22.6487 -4.17192 0.138123 66.6869 -2.60199 -0.313696 23.2988 -1.65276 2.35769 -0.324831 7.59978 -90.0649 11.6743 -0.676487 -0.0586264 0.00352753 -0.678399 -0.0288001 -22.5329 -0.627598 -0.259243 -2.52023 -0.627584 -0.259233 94.1092 -44.0243 -95.3244 36.5608 -11.7788 5.00366 -20.7777 -12.0471 -24.9331 -7.75492 -0.0158044 -5.07962 -84.5503 -42.1692 86.0688 -34.7579 8.96844 -2.03092 10.9618 -5.62338 -16.216 -3.72706 -0.0904611 -3.87384 -29.2332 2.63103 0.287659 4.37086 2.94259 3.34581 
-19.7043 101.026 63.9646 95.1478 31.5743 86.8178 -174.208 0.482012 89.8289 -23.2072 17.7922 5.56188 73.5506 7.83592 1.88439 16.4536 -6.98645 4.44929 175.485 4.57819 90.5792 -23.0506 -5.35131 0.155763 67.6772 -2.82042 -0.70912 22.448 -1.79419 2.31977 -0.107133 7.6316 -90.0304 11.6106 -0.227255 -0.0370656 -0.0603729 -0.22869 -0.027033 -22.5956 -0.205629 -0.103651 -2.583 -0.205621 -0.103656 94.8705 -42.7072 -94.2814 34.5675 -11.304 2.36976 -22.4771 -11.9598 -29.3135 -9.22463 -0.0577288 -4.48511 -84.669 -43.9682 86.1365 -38.7133 11.5959 7.16128 9.73051 -7.26544 -7.89309 -6.02021 -0.149266 -2.21109 -29.273 2.5905 1.60827 4.71126 3.01441 2.56154 
-19.1058 100.704 64.7556 92.7031 32.0488 88.0518 -174.459 5.11287 91.0915 -27.5032 15.1389 4.99424 75.141 7.92207 -0.404817 14.1931 -7.71841 3.75454 175.837 7.60551 91.3848 -25.0024 -4.62518 0.424134 68.4629 -3.04423 -1.11624 22.0512 -1.91648 2.46219 0.162797 7.75632 -89.9988 11.3616 0.324614 -0.0298258 -0.3093 0.322973 -0.0440912 -22.8447 0.318563 0.0691127 -2.83208 0.318562 0.0691103 94.0628 -43.4248 -95.5101 29.8474 -10.9654 1.00074 -24.0246 -12.4419 -32.4519 -9.1664 -0.160989 -3.11026 -84.6758 -44.478 86.1987 -40.2539 8.04686 14.2271 9.85032 -8.48923 -7.40761 -8.6965 -0.153522 -2.79686 -26.4611 2.3675 -0.0389509 4.93503 2.61139 2.77626 
-20.1098 99.7147 66.2958 88.7924 34.528 89.7549 -175.75 14.8477 90.4668 -36.483 18.5025 5.2092 73.9591 7.5574 0.448169 16.4598 -6.99841 4.43716 175.83 14.7346 91.5417 -30.5825 -2.33905 1.07677 69.9575 -3.34005 -1.2757 22.1405 -1.84921 2.31764 0.340936 8.03923 -89.9778 10.7956 0.68913 -0.0203541 -0.875177 0.687585 -0.0506757 -23.4118 0.663392 0.187707 -3.39912 0.663406 0.187705 93.245 -43.1434 -96.9365 24.1142 -13.5226 -2.63655 -21.2098 -11.4235 -27.534 -10.5511 -0.114123 -3.89854 -85.1351 -43.7829 85.3561 -37.9244 8.2732 13.6854 9.64741 -11.2333 -5.75969 -9.84185 -0.132038 -3.5366 -19.8401 1.49817 -1.78334 4.79265 1.58732 2.15552 
